<svg xmlns="http://www.w3.org/2000/svg" width="413.67" height="144.821" viewBox="0 0 413.67 144.821">
  <g id="Group_173" data-name="Group 173" transform="translate(-2277.201 -268.833)">
    <path id="Path_189" data-name="Path 189" d="M2298.751,400.915a18.281,18.281,0,0,1,11.813-5c7.461-.25,14.824,1.485,22.278.882,11.958-.966,23.109-4.869,34.073-9.68-9.571,0-19.147-.175-28.714.056-7.545.183-15.076.88-22.616,1.309-.771.044-1.817.3-2.192-.656-.45-1.15.6-1.841,1.317-2.3,3.54-2.283,7.588-3.085,11.684-3.634a11.506,11.506,0,0,1,3.308,0c4.814.773,8.234-.581,9.754-5.641a5.8,5.8,0,0,1,2.6-3.111c4.187-2.224,4.031-5.887,4.134-9.862.128-4.873-1.216-9.861.793-14.632,2.6-.866,5.2-1.688,7.555.58-.11,2.425.25,5.093-3.54,5.079-1.525-.006-1.315,1.458-1.379,2.511a26.583,26.583,0,0,0,.848,8.089.321.321,0,0,0,.152.15c.11-.079.207-.176.314-.27a2.33,2.33,0,0,1,2.27.349c1.673,2.061,1.083,3.284-1.232,4.437a23.036,23.036,0,0,0-9.819,9.651c-1.711,3.073-1,4.256,2.532,4.67,7.386.865,14.82,2.361,22.05-.925a3.934,3.934,0,0,1,2.845-.077c1.667.854,1.767,3.845,4.485,3.294,2.5,1.238,4.271,2.81,2.708,5.906a2.657,2.657,0,0,1-3.356.345c-1.724-1.333-3.47-.256-5.212-.024a9.383,9.383,0,0,1-1.186.135c-8.922,1.924-17.63,4.647-26.441,6.971-2.833.747-5.428,1.6-8.467.95a21.57,21.57,0,0,0-7.846.124,15.135,15.135,0,0,1-9.675-1.108c-1.482-.747-3.319-1.1-4.665.263-1.2,1.219.251,2.267.726,3.309.638,1.4.27,2.7-.061,4.165,1.022-2.44,2.384-4.632,5.331-4.332,2.964.3,4.062,2.705,4.561,5.229.946,4.777,3.926,8.489,6.273,12.532a3.8,3.8,0,0,0,3.759,2.143c2.065-.232,1.949-2.05,2.22-3.491.842-4.48,1.3-9.043,2.926-13.353,1.881-4.993,4.565-5.682,8.114-1.837,2.178,2.359,6.162,1.663,7.775,5.026.335.7,1.55-.7,2.266-1.272,3.979-3.179,4.452-3.232,8.577-.194s7.991,4.478,13.252,1.615c4.885-2.658,10.543-3.466,15.719.33,1.654,1.213,3.425.473,5.187.085,6.249-1.379,12.494-2.348,18.837-.33,2.122.675,4.326.94,5.468,3.246a2.8,2.8,0,0,0,2.866,1.3c9.366-.217,18.717-.39,28.025-1.836,4.474-.695,9.075.227,13.616.436,12.27.564,24.484,2.073,36.791,2.22-4.206-1.337-8.655-1.1-12.926-2.026-3.018-.654-5.425-1.883-6.673-4.922-.935-2.277-.49-3.879,1.992-4.385,5.01-1.023,9.466-3,13.005-6.8a2.152,2.152,0,0,1,1.4-.836c5.217.3,8.913-3.3,13.3-5.11a6.811,6.811,0,0,1,4.865.143c3.112,1.107,6.221,2.231,9.592,1.116a19.833,19.833,0,0,1,2.391-.828c4.281-.3,8.233-.607,12.335,2.212,2.975,2.044,7.441,1.7,11.341,1.561A27.287,27.287,0,0,1,2563,396.2c4.3,1.528,4.961,4.164,1.858,7.4a21.914,21.914,0,0,0-1.762,1.754c-1.128,1.477-2.168,3.3-1.389,4.956.7,1.484,2.5.154,3.779.117,5.4-.16,10.667-1.494,16.036-1.976,2-.18,4.18-.923,5.631,1.314a2.077,2.077,0,0,1-.14,1.168,13.481,13.481,0,0,1-3.062,1.424c1.04.009,1.8-1.029,2.91-.779,1.347,2.391,2.362,5.069,5.283,6.1,3.861,1.038,8,.105,11.8,1.79,1.232.546,1.639-.534,1.517-1.682-.157-1.477.327-2.438,1.988-2.443,2.789.253,5.474,1.323,8.578,1.1-1.8-.93-3.605-1.566-3.988-3.668a2.35,2.35,0,0,1,.281-1.121c1.623-1.456,3.74-.23,5.493-1.008,2.015.305,3,1.725,3.708,3.44a7.465,7.465,0,0,0,9.456,4.366,12.575,12.575,0,0,1,7.61-.49c3.761.943,7.424,1.316,10.314-2.089,4.063.654,8.137,1.245,12.181,2.007,1.027.193,2.423.673,2.491,1.894.083,1.5-1.605,1.206-2.513,1.624a5.571,5.571,0,0,1-2.438.3c-18.1-.613-36.171,1.521-54.248.74-10.815-.467-21.578-2.059-32.377-3-3.57-.31-7.185-.074-10.769-.27-1.1-.06-3.367.953-2.424-2.146.469-1.541-1.491-1.147-2.375-1.008a235.2,235.2,0,0,1-43.56,3.092c-12.476-.379-24.909-2.045-37.361-2.875-11.8-.788-23.722-1.045-35.571.325-4.918.569-9.877.174-14.84.864-4.6.639-9.273.9-13.892,1.565-.9.129-2.084.694-2.423-.653-.237-.935.788-1.287,1.485-1.718,1.5-.928,2.976-1.9,5.3-3.391-11.193-1.919-20.936.4-30.549,3.339-.214-.48-.465-.768-.4-.937.659-1.743,3.532-3.1,2.367-4.843-1.35-2.024-3.855-.132-5.723.3a36.958,36.958,0,0,0-13.153,5.859c-1.206.85-2.277,2.034-3.963,1.942a2.382,2.382,0,0,1-.3-.748c-.021-1.516,2.5-3.024.524-4.368-1.454-.989-2.571,1.139-3.927,1.691-1.069.435-1.584,1.952-3.173,1.737-.644-2.189,1.4-4.29-.032-6.575-4.024,2.359-5.057,6.674-6.9,10.415a27.236,27.236,0,0,0-1.042,3.14c-.353,1.013-1.037,1.713-2.163,1.466-1.023-.225-1.049-1.185-1.013-2.014.154-3.562-.578-7.186.772-10.674.269-.7.866-1.521-.2-2.392-2.115.635-2.88,2.586-3.847,4.342-.4.721-.785,1.647-1.77,1.377-1.031-.283-.753-1.344-.768-2.123a30.875,30.875,0,0,0-.458-6.065c-2.9,2.666-3.041,6.224-3.687,9.584-.128.667.091,1.4-.042,2.067-.458,2.273,1.367,5.258-1.354,6.75-3,1.645-8.532-.361-10.873-3.206-2.772-3.368-4.331-7.344-6.044-11.255-.637-1.453-1-3.077-2.8-4.344-1.095,3.631-.178,6.941.1,10.528-2.053-.681-2-2.6-3.085-3.521-1-.852-1.818-2.634-3.358-1.755-1.594.911-.542,2.433-.009,3.664.488,1.126,1.037,2.227,1.8,3.846-4.574-1.083-6.2-.3-3.139,3.859,1.331,1.811-.227,2.451-1.841,2.366-5.632-.293-11.268-.57-16.888-1.038-3.82-.318-7.614-.942-11.419-1.429v-1.66c3.2-2.026,6.756-1.257,10.086-.861,3.86.46,7.735.335,11.571.824,1.85.237,2.993-.22,3.035-2.273a10.923,10.923,0,0,1,1.4-4.3c.729-1.593.167-2.962-.9-4.19-1.147-1.318-1.975-2.7-1.055-4.5a3.513,3.513,0,0,1,1.1-1.129c.783-.515,1.7-1.024,1.511-2.136-.213-1.281-1.365-1-2.243-1.127a3.851,3.851,0,0,1-2.777-1.385Q2298.838,401.187,2298.751,400.915Z" transform="translate(0 -13.415)" fill="#f2f3f3"/>
    <path id="Path_190" data-name="Path 190" d="M2302.108,417.617c-.361,1.775-.493,3.08,1.463,4.521,1.5,1.106,3.067,3.716.417,5.839a3.228,3.228,0,0,0-1.011,3.383c.813,3.959-.936,3.463-4.042,3.24-7.227-.52-14.447-1.638-21.733-1.184v-9.96c5.915-3.724,12.559-6.182,18.17-10.423a4.963,4.963,0,0,1,3.38-1.231l.087.145C2298.488,414.668,2300.045,416.288,2302.108,417.617Z" transform="translate(0 -24.3)" fill="#f1f3f2"/>
    <path id="Path_191" data-name="Path 191" d="M2593.078,397.6c-.395-2.224-2.177-1.9-3.582-1.716q-10.5,1.393-20.956,3.037c-1.669.262-2.569.458-2.228-1.843.479-3.23,1.216-6.009,4.242-7.984,2.707-1.765,2.247-3.8-.811-4.977a26.017,26.017,0,0,0-11.351-1.549c-3.885.281-8.787.539-11.171-1.448-3.84-3.2-7.659-2.142-11.533-2.7a5.967,5.967,0,0,0-.827-.007c.14-2.125,2.02-2.142,3.3-2.288,3.776-.427,4.727-2.281,4.047-5.865a54.9,54.9,0,0,1-.446-7.347c.635-2.583-2.26-1.134-2.774-2.4-3.622-1.136-6.821.758-10.138,1.561-.571.139,1.152,1.15.787,2.134-.414,3.123.028,6.288-.413,9.393-.467,3.287-2.362,4.153-5.385,2.685-.34-.165-.11.206-.1.234a1.962,1.962,0,0,1-.476,1.887c-3.808-1.715-6.633.652-9.428,2.5-1.97,1.3-3.509,3.022-6.266,1.884-1.359-.561-2.821.38-3.646,1.459-3.246,4.249-7.781,5.9-12.792,6.59-2.036.282-2.338.648-1.552,2.852,1.213,3.4,3.689,4.049,6.606,4.651,5.189,1.071,10.731.308,15.649,3.426a54.238,54.238,0,0,1-14.4.519c-4.645-.331-9.259-1.279-13.9-1.4-7.841-.2-15.756-1.883-23.4-1.2-5.925.529-11.974.4-17.852,1.467-4.962.9-9.915.233-14.865.463a2.158,2.158,0,0,1-1.526-.418c-3.729-4.138-6.022-5.311-11.345-5.342a40.62,40.62,0,0,0-12.987,1.938,5.05,5.05,0,0,1-5.55-1.123c-4.141-3.469-9.432-2.354-13.211-.037-6.719,4.118-11.532,1.9-16.234-2.747-1.637-1.616-2.987-1.125-4.319-.007-1.777,1.49-3.385,3.18-5.463,5.162-.518-3.743-1.277-6.744-5.864-5.264-1.375.443-1.217-1.547-1.7-2.417-.731-1.326-1.559-2.171-3.188-2.172-1.789,0-2.292,1.216-2.813,2.538-1.935,4.909-2.335,10.157-3.4,15.259-.28,1.344.719,3.334-1.569,3.69-1.908.3-4.052.51-5.3-1.413-2.87-4.431-6.3-8.592-7.272-14.017-.427-2.381-1.068-4.99-3.961-4.984-2.552.006-3.789,1.912-3.547,4.593.081.891-.331,1.76-1.382,1.6a4.163,4.163,0,0,1-2.16-1.048c-.61-.588-.086-1.318.433-1.766,2.229-1.921,1.416-3.519-.407-5.13-2.208-1.951-.882-2.981,1.062-3.854,1.332-.6,3.038-.947,4.015-.253,5.267,3.736,11,.839,16.455,1.461,9.24,1.052,17.332-3.505,26-5.219,3.871-.765,7.477-3.315,11.7-2.1.717,3.777,3.6,5.443,7.183,4.109,2.353-.875.263-2.975,1.12-4.277,1.464-2.83-.533-3.891-2.531-4.952-1.081-1.551-1.06-3.352-1.107-5.116-.139-5.385-1.642-10.482-3.219-15.562a28.571,28.571,0,0,0-9.2-14.965c-4.268-3.6-7.677-8.584-13.894-9.3-.967-5.576.812-9.345,6.8-10.362a1.423,1.423,0,0,0,.739-.349c4.064-4.088,9.424-4.621,14.654-6.1,5.3-1.5,9.553-1.457,13.795,1.891,1.2.943,2.4,2.038,3.677.092,1.306,3,1.553,5.774-.46,8.772s-3.028,6.515-6.148,8.939c-1.892,1.469-1.109,3.774,1.091,5.1a3.429,3.429,0,0,0,2.32.747c6.163-1.522,8.6,2.524,10.77,7.041a8.869,8.869,0,0,0,2.938,3.4c5,2.931,6.014,7.439,5.454,12.707a30.228,30.228,0,0,0-.016,3.217c.023-1.839,0-3.6.007-5.377-.065-6.565-.935-13.124.082-19.67,1.25-2.055,2.942-.845,4.376-.438a26.967,26.967,0,0,0,10.583.852c2.5-.291,4.925-.967,5.358-4.088a5.08,5.08,0,0,0-1.388-4.17,4.36,4.36,0,0,1-1.243-5.152c.6-1.845.121-3.338-2.337-3.1-1.414.136-2.592-.276-2.628-1.853-.091-3.984-2.447-6.5-5.345-8.72,0-6.88.039-13.761-.012-20.64-.014-1.867.144-3.742,1.5-5.009a7.7,7.7,0,0,0,2.705-6.97,2.273,2.273,0,0,1,1.453-2.682c1.283-.439,1.586.57,2.074,1.438.2.359,1.094.756,1.338.6,3.46-2.17,8.293-2.351,10.116-6.917.99-2.476,3.134-3.529,5.283-2.4a11.671,11.671,0,0,0,6.347,1.2c3.543-.173,4.951,1.438,4.93,4.951-.082,14.225-.055,28.451,0,42.676.005,1.58-.628,3.348.824,4.7.486,2.861-1.22,5.862.555,8.643-.82,3.768.36,7.024,2.566,10.023.866,4.244-1.328,8.113-1.507,12.246a32.532,32.532,0,0,1-.982,6.135c-.766,3.184-.051,5.723,2.857,7.464a3.453,3.453,0,0,1,.268,3.18c-1.959,5.614-2.814,11.516-4.5,17.194-2.111,3.059.358,4.339,2.71,6.22-.378-1.5-1.146-2.415-1.193-3.508-.277-4.4,2.193-7.917,3.947-11.585,1.872-3.913,3.089-8.23,6.238-11.468a1.492,1.492,0,0,1,1.225.479,5.344,5.344,0,0,1,1.32,3.831c-.277,6.507,1.154,12.9,1.222,19.368-.163,3.621,2.934,1.131,4.147,2.28-.883-1.109-2.013-1.945-2.34-3.364-.888-7.909,1.278-15.589,1.681-23.395,1.7-3.482,1.7-7.148,1.022-10.842-.645-3.5-1.606-6.986-1.793-10.517-.212-4.012-1.9-5.945-5.894-5.851-1.231-1.824-.027-3.1,1.051-4.342a38.038,38.038,0,0,0,3.273-4.221c1.678-2.588.053-2.658-1.881-2.511a1.651,1.651,0,0,1-.921-.59c-.072-2.475,2.087-3.653,3.176-5.448a1.053,1.053,0,0,0-.083-.743c-.376-.581-.254-.138-.362.147a1.865,1.865,0,0,1-2.417,1.278c-1.744-1.756-1.077-3.748-.508-5.692.6-2.067,1.5-4.074,1.009-6.3-1.585-3.953-5.37-2.187-8.111-3.122.006-2.071.016-4.143.017-6.214,0-10.494,0-10.491,8.861-16.263,1.725-1.124,3.375-2.371,5.159-3.387a5.863,5.863,0,0,1,5.058-.8c5.615,1.842,11.291,3.511,16.987,5.091,2.869.8,3.85,2.4,3.834,5.387-.125,22.318-.094,44.638-.111,66.957-7.652.581-15.293.683-22.161-.592,6.822,1.847,14.553.305,22.162,1.246.02,1.384.086,2.767.048,4.149-.045,1.663.518,2.558,2.364,2.593,2.018.038,2.738-.868,2.625-2.757-.057-.965,0-1.936-.006-2.905-.1-14.634.491-29.286-.867-43.889-.351-3.777.664-5.667,4.748-6.526,6.99-1.47,13.835-3.655,20.7-5.69a8.956,8.956,0,0,1,6.778.6c3.863,1.823,7.82,3.45,11.768,5.086,1.942.8,2.4,2.189,2.591,4.207,1.009,10.607.719,21.233.767,31.855.023,5.21.075,5.017,5.476,4.345,7.706-.959,14.694-3.363,20.58-8.561,1.9-.606,3.1-2.272,4.8-3.185,2,.206,3.454-1.141,5.155-1.783a1.3,1.3,0,0,1,1.574.1c.645,2.083,1.125.583,1.648-.095a2.175,2.175,0,0,1,2.051-.761c1.436,1.1,2.893.334,4.345.048a1.329,1.329,0,0,1,.189,1.217,14.807,14.807,0,0,0,1.654,15.839c.873,1.086,2.72,1.917.881,3.659-2.117,1.264-4.471,1.234-6.814,1.3a229,229,0,0,1-30.487-1.481c-9.819-1.055-10.826.117-9.247,9.892.044.271.08.544.124.815.189,2.744,2.2,3.656,4.411,4.234a55.556,55.556,0,0,0,15.513,2.247c8.156-.226,16.222,1.212,24.365.951a6.393,6.393,0,0,1,3.213.638c1.781,1.559.663,3.294.194,4.907-1.143,3.93-2.44,7.817-2.851,11.919a8.814,8.814,0,0,1-1.031,4.493A1.8,1.8,0,0,1,2593.078,397.6Z" transform="translate(-6.174 0)" fill="#f1f3f2"/>
    <path id="Path_192" data-name="Path 192" d="M2747.538,370.1c-11.448-.377-22.922.693-34.354-.573-1.329-.147-1.884,1.017-2.879,1.4-1.954-.62-4.291-.843-3.69-4.018-1.8,1.047-1.72,3.074-3.1,4.027-1.942-2.4-4.849-2.006-7.42-2.467a25.869,25.869,0,0,0-4.49-.051c-7.67,0-7.67,0-7.991,7.611-2.143-.641-1.846-2.521-1.951-4.084-.173-2.615-.066-5.244-.058-7.862a77.052,77.052,0,0,0-.346-12.762c-.449-3.726.737-4.618,4.156-3.333,3.956,1.487,7.92,2.227,12.107,1.091a4.694,4.694,0,0,1,3.97.362c4.263,2.688,4.283,2.657,7.156-.978,4.451,2.125,8.531-.6,12.741-1.137,6.386-.813,12.514-.945,18.367,2.2,2.418,1.3,4.916,2.454,7.784,2.272,1.531,1.4,1.337,3.305,1.178,5.022C2748.305,361.251,2750.033,365.871,2747.538,370.1Z" transform="translate(-68.665 -13.26)" fill="#f1f3f2"/>
    <path id="Path_193" data-name="Path 193" d="M2717.457,423.272c-1.937,4.5-4.011,5.275-10.757,3.257-2.5-.75-4.548-1.488-6.707.707-2.1,2.136-4.006-1.277-6.529-.4-3.559,1.247-3.779-1.946-4.141-4.436-.288-1.981-1.86-2.947-3.27-4.031-2.66-1.394-2.844-4.3-4.047-6.59-2.215-5.8-2.108-6.484,1.423-9.156a9.442,9.442,0,0,0,4.288-7.5c.11-2.655,1.2-4.369,4.183-2.47,2.567,1.633,4.8-.105,7.058-.807,1.564-.485,2.873-1.082,3.881.737,2.324,1.655,4.981,0,7.4.74l.789-.51c2.8-.868,4.566,1.167,6.511,2.467,1.823,1.217,3.353,2.776,5.891,1.914a2.207,2.207,0,0,1,2.892,1.621c.407,1.214-.073,2.009-1.279,2.6-2.2,1.072-.945,2.97-.9,4.567.734,6.317-.865,11.733-6.026,15.821C2717.74,422.1,2717.668,422.776,2717.457,423.272Z" transform="translate(-68.557 -20.827)" fill="#fb0"/>
    <path id="Path_194" data-name="Path 194" d="M2703.5,344.9c.108,2.2-.214,4.232-2.722,4.917-2.254.615-3.7-.458-4.5-2.546-.663-1.744-1.889-1.1-3.064-.748a17.7,17.7,0,0,1-14.265-1.553c-2.453-1.36-2.277.7-1.955,1.855,1.211,4.354.558,8.757.654,13.139a1.208,1.208,0,0,1-1.119-.319c-3.564-4.021-5.881-4.034-9.061.084a6.15,6.15,0,0,1-5.6,2.664c-2.637-.66-2.783-3.1-2.692-4.9.165-3.283-1.158-6.462-.429-9.7.14-.625.206-.548-.232-.225-.268.2-.956.208-.794.514,2.448,4.627.117,10.18,2.89,14.73a2.3,2.3,0,0,1-.1,1.215,6.929,6.929,0,0,1-3.925,1.979,1.059,1.059,0,0,1-.913-.84c-4.469-5.547-6.029-11.672-3.7-18.57,0-.282-.007-.564-.01-.846A55.691,55.691,0,0,1,2655,334.755c1.7-4.915,5.967-6.858,10.132-8.946,2.041,3.76,5.315,3.216,8.646,2.478,4.872,1.767,6.121,6.867,9.226,10.257a6.247,6.247,0,0,0,4.865,2.288c4.365.236,8.8-.907,13.1.608a1.1,1.1,0,0,1-.873.716,2.593,2.593,0,0,0,2.5.322C2703.631,343.005,2703.362,344.028,2703.5,344.9Z" transform="translate(-63.522 -9.685)" fill="#dce1e6"/>
    <path id="Path_195" data-name="Path 195" d="M2350.035,359.8c0,1.934-.089,3.873.026,5.8.137,2.283-.486,4-2.647,5.121-2.346,1.213-3.449,3.5-4.458,5.789-1,2.259-2.53,3.489-5.141,3.265a32.268,32.268,0,0,0-18.273,4.029c-3.024,1.618-3.944-.173-4.358-2.748-.458-2.858.537-5.648.274-8.562-.181-1.995,1.918-2.728,3.93-2.708,2.419.025,3.268-.773,2.859-3.564-1.074-7.317,1.128-9.685,8.5-9.663,2.732.009,5.037-.114,5.22-3.616a2.845,2.845,0,0,1,2.385-2.554c3.441-.98,6.964.593,10.483-.281,1.066-.265,1.185,1.265,1.191,2.236C2350.042,354.831,2350.031,357.317,2350.035,359.8Z" transform="translate(-6.436 -13.806)" fill="#fefefe"/>
    <path id="Path_196" data-name="Path 196" d="M2660.592,369.851l.04-.281c-.611-1.6.722-1.38,1.539-1.644,1.9-.384,4.3-.8,4.791-2.662,1.314-4.972,5.345-3.329,8.271-3.484,1.712-.091,1.208,3.211,2.826,4.271.179,4.173-.006,8.369.816,12.5q-.036,9.512-.072,19.023c-3.249,2.736-1.63,5.811-.62,8.845.059,2.374.975,4.962-1.664,6.666a4.264,4.264,0,0,1-3.675-.32c-2.052-1.97-2.4-4.608-2.434-7.19-.066-4.509-.379-9.017.531-13.529.845-4.192-1.283-8.388-.344-12.673a31.8,31.8,0,0,0,.459-3.65c.448-2.222.375-4.678,2.631-6.137l-.64-.434c-1.415,1.638-1.269,3.85-2,5.7a81.473,81.473,0,0,1-1.3,9.974c-2.626,8.306-7.075,15.828-10.311,23.873a3.684,3.684,0,0,1-2.971,2.585,3.239,3.239,0,0,1-3.115-2.265c-.453-6.267,2.21-11.867,4.123-17.543a40.3,40.3,0,0,0,2.231-13.3C2661.08,375.519,2660.078,372.6,2660.592,369.851Z" transform="translate(-63.93 -15.775)" fill="#63f"/>
    <path id="Path_197" data-name="Path 197" d="M2430.5,319.181c5.01,1.411,5.805,2.609,6.294,9.478,5.576-.856,6.582.3,4.542,5.66-.459,1.205-.249,1.56.606,2.237,1.638,1.3,3.03,2.815,2.786,5.166-5.234,4.358-9.358,4.471-14.352-.012-2.684-2.41-5.267-4.47-9.165-3.542a1.893,1.893,0,0,1-2.222-.716c-.527-1.021.23-1.848.9-2.536,1.3-1.333,3.118-2.113,3.455-4.372.17-1.137,1.676-1.224,2.815-1.243,1.775-.029,3.584.06,5.051-1.282-2.808,2.107-6.334.8-9.4,2.107-2.04.869-3.675,1.724-4.46,3.875-1.791,4.9-5.909,6.654-10.551,7.605-1.359.279-2.9.462-3.761-.931-.813-1.315.221-2.361,1.039-3.276,1.667-1.868,2.468-4.321,4.226-6.125a3.405,3.405,0,0,0,.736-3.843c-1.581-4.012-.607-7.861.642-11.7,4.96-5.379,11.077-5.186,14.541,1.11C2426,320.061,2427.5,320.8,2430.5,319.181Z" transform="translate(-21.34 -7.318)" fill="#00d394"/>
    <path id="Path_198" data-name="Path 198" d="M2408.784,316.511c.323,4.411-1.635,9,1.094,13.232.573.886-.092,1.669-.764,2.1-2.907,1.87-2.976,5.882-5.913,7.732a1.6,1.6,0,0,0-.5,1.406c.216.837,1.081.667,1.736.681,4.783.11,9.747-3.11,11.014-7.651,1.139-4.079,4.6-4.184,7.5-4.491a19.689,19.689,0,0,0,10.077-3.578c-.818,3.708-2.569,4.994-5.571,4.973-2.636-.019-2.577.09-3.5,2.759-.151.437-1.08.623-1.666.888a7.593,7.593,0,0,0-4.16,4.143c5.46-2.458,8.848-.319,12.2,3.133,2.949,3.04,6.7,4.244,10.8,1.6a11.823,11.823,0,0,1,2.7-.931c.687,2.784-1.024,4.067-3.215,4.892-4.685,1.763-9.4,1.326-14.081-.073-1.292-.385-2.561-.846-3.84-1.272-.244,1.109-.43,2.248-1.516,2.92-2.227,1.917-5.719.837-7.73,3.277a.532.532,0,0,1-.854.26c-.646-1.193-1.311-2.375-1.935-3.579-1.142-2.2-2.284-3.533-5.37-2.644-2.885.832-6.238.4-7.51-3.232-1.1-3.152.5-5.312,3.275-6.633a2.971,2.971,0,0,0,1.752-2.916c.062-.93.159-2.332.742-2.678,3.808-2.255,2.324-5.9,2.639-9.071C2406.882,319.926,2407.041,317.826,2408.784,316.511Z" transform="translate(-20.436 -8.104)" fill="#01c176"/>
    <path id="Path_199" data-name="Path 199" d="M2730.383,406.009c-.533-1.246-1.027-2.51-1.609-3.733-.76-1.6-.626-2.505,1.408-1.826,1.083.361,1.976.528,1.979-.955,0-1.11-1.192-2.2-1.793-1.743-3.842,2.933-5.5-1-7.98-2.3-1.7-.889-3.411-1.742-5.117-2.61,2.816-2.188,6.105-1.1,9.086-.964,12.755.59,25.1,3.073,36.335,9.524,1.135.652,3.448,1.1,2.9,2.918-.442,1.462-2.45.746-3.73.7-6.875-.254-13.745.439-20.652-.546-2.812-.4-5.9.589-8.9-.154C2731.176,404.04,2730.59,404.942,2730.383,406.009Z" transform="translate(-74.804 -20.849)" fill="#e5e4e4"/>
    <path id="Path_200" data-name="Path 200" d="M2358.934,340.567c6.253-2.693,8.309,3.578,11.894,6.005a30.762,30.762,0,0,1,12.053,17.129,2.84,2.84,0,0,1-3.144,1.36,3.121,3.121,0,0,1-1.614-1.75,34.11,34.11,0,0,0-8.781-12.079,7.533,7.533,0,0,1-2.133-2.937c-2.2-2.231-5.047.312-7.375-.989-.374-4.106-4.132-2.874-6.37-4.04-1.373-1.249-.319-2.2.392-3.195Z" transform="translate(-12.85 -12.081)" fill="#3c7dfc"/>
    <path id="Path_201" data-name="Path 201" d="M2321.818,354.748c-8.949,10.372-12.485,22.762-13.745,36.1-.2,2.147.831,6.4-2.215,6.052-3.384-.392-1.345-4.3-1.162-6.629a75.1,75.1,0,0,1,6.227-25.154,39.212,39.212,0,0,1,8.217-12.313C2320.136,353.309,2321.756,352.958,2321.818,354.748Z" transform="translate(-4.542 -14.273)" fill="#fd7075"/>
    <path id="Path_202" data-name="Path 202" d="M2360.336,397.18c-8.25,6.495-41.148,7.335-43.842,2.249A428.915,428.915,0,0,0,2360.336,397.18Z" transform="translate(-6.679 -21.816)" fill="#fefefe"/>
    <path id="Path_203" data-name="Path 203" d="M2324.915,352.57c-.567-1.1-3.318.81-2.678-1.948,7.3-7.278,15.888-11.334,26.409-10.539q-.2,1.6-.393,3.195c-5.919.74-11.932,1.16-17.046,4.763C2329.094,349.529,2327.011,351.059,2324.915,352.57Z" transform="translate(-7.639 -12.094)" fill="#fdae74"/>
    <path id="Path_204" data-name="Path 204" d="M2641.681,346.959l-1.333-.436a6,6,0,0,1-1.035-4.681c.833-3.235.674-6.512.616-9.8a10.077,10.077,0,0,1,.439-3.237c.374-1.152.973-2.656,2.3-2.593,1.572.076,1.461,1.759,1.416,2.89-.227,5.629,2.834,10.946,1.538,16.663l-1.484,1.114A2.579,2.579,0,0,1,2641.681,346.959Z" transform="translate(-61.526 -9.753)" fill="#03d495"/>
    <path id="Path_205" data-name="Path 205" d="M2676.691,326.623a2.145,2.145,0,0,0-.781.171c-4.807,3.4-5.574,3.147-7.865-2.649,1.856-2.151.229-5.035,1.54-7.3,1.384.656.438,1.882.7,2.812.019.071-.006-.111.04-.466.309-2.409,2.666-.1,3.827-1.765,1.448-2.068,3.642-1.9,4.849.838C2679.922,321.519,2676.925,323.689,2676.691,326.623Z" transform="translate(-66.436 -8.021)" fill="#c29579"/>
    <path id="Path_206" data-name="Path 206" d="M2486.619,315.608c3.715-1.166,7.269-1.757,9.434,2.633a2.249,2.249,0,0,1-.388,1.133c-1.54,2.561-5.86,1.329-6.464,3.325-.785,2.595-1.322,4.842-3.728,6.289a1.044,1.044,0,0,1-1.066-.16c-.55-2.127-1.193-3.813,1-5.994C2486.749,321.505,2485.547,317.99,2486.619,315.608Z" transform="translate(-35.13 -7.808)" fill="#1b3452"/>
    <path id="Path_207" data-name="Path 207" d="M2633.329,349.787c-.611,2.554-2.355,3.4-4.8,3.185-1.229-5.821,1.4-11.328,1.393-17.053a.914.914,0,0,1,1.035-.985,1.264,1.264,0,0,1,.882.711,9.892,9.892,0,0,1,.609,3.168A34.912,34.912,0,0,0,2633.329,349.787Z" transform="translate(-59.663 -11.234)" fill="#09d598"/>
    <path id="Path_208" data-name="Path 208" d="M2483.44,331.63a.933.933,0,0,1,.486-.374c1.941,1.044,1.4,3.049,1.823,4.685.181,2.131.66,4.311-.975,6.155a4.108,4.108,0,0,1-4.98-.4c-3.329-2.791-.56-5.52.086-8.269C2481.072,332.834,2481.923,331.571,2483.44,331.63Z" transform="translate(-34.164 -10.611)" fill="#d4dbe1"/>
    <path id="Path_209" data-name="Path 209" d="M2679.314,317.822c-1.931-1.031-3.943-2.9-5.114.9-.319,1.033-.6,1.028-1.684-.016-1.98-1.917-1.029,1.59-2.256,1.751-.121-1.366-.239-2.714-.359-4.06.979-3.929,3.948-3.084,6.489-2.419C2678.052,314.415,2680.476,314.939,2679.314,317.822Z" transform="translate(-66.752 -7.578)" fill="#24425b"/>
    <path id="Path_210" data-name="Path 210" d="M2714.806,392.583c-2.584.925-5.234,2.517-7.4-.741.337-.852.674-1.707,1.022-2.589.978.4.027,1.9,1.223,2.157.782-.029.554-.83.867-1.143.978-.981-1.464-3.215,1.034-3.309,2.057-.078,3.1,1.492,3.167,3.565C2714.747,391.211,2714.778,391.9,2714.806,392.583Z" transform="translate(-73.127 -20.078)" fill="#cdd2d8"/>
    <path id="Path_211" data-name="Path 211" d="M2708.089,374.816c.123-1.473-.186-3.156,1.315-4.1,1.082-.679,2.839-2.532,2.511,1.012a2.724,2.724,0,0,0,1.834,2.246c.176-.613.352-1.227.852-2.971.151,2.048.216,2.924.281,3.8C2712.621,377.277,2710.357,377.336,2708.089,374.816Z" transform="translate(-73.242 -17.133)" fill="#c8cfd4"/>
    <path id="Path_212" data-name="Path 212" d="M2530.543,377.464c-7.5-.085-15.046.839-22.439-1.339,7.46,1.145,14.963.342,22.439.685A3.2,3.2,0,0,1,2530.543,377.464Z" transform="translate(-39.249 -18.238)" fill="#bbc3ca"/>
    <path id="Path_213" data-name="Path 213" d="M2711.906,345.68c-1.775,1.912-3.637.728-6.187.687,1.6-2.189,3.263-1.374,4.564-1.725Z" transform="translate(-72.839 -12.886)" fill="#a7a09c"/>
    <path id="Path_214" data-name="Path 214" d="M2546.154,409.378c1.523-1.072,3.678-.882,4.939-2.478,3.284.559,6.657.028,9.923.8,5.21,1.57,10.655,1.649,15.988,2.364,3.483.466,6.974,1.444,10.563.946,4.133.709,8.329.948,12.46,1.671-.644,3.229-3.854,4.162-5.876,5.916-6.9,5.99-14.711,8.564-24.3,6.478-12.033-2.615-24.353-3.921-36.553-5.764-.956-.144-2.128.01-2.4-1.131-.21-.88.686-1.448,1.379-1.887a50.589,50.589,0,0,1,12.146-6.1c2.5.606,5.072.31,7.571.466C2550.186,409.746,2547.595,412.077,2546.154,409.378Z" transform="translate(-43.117 -23.469)" fill="#fefefe"/>
    <path id="Path_215" data-name="Path 215" d="M2367.145,350.012c6.146,3.962,9.7,9.906,12.533,16.4,3.393,5.411,4.958,11.149,3.132,17.493-5.576,1.16-10.976,3.432-16.877,2.5-3.9-.615-7.821-1.125-11.74-1.627-1.634-.21-2.108-.935-1.564-2.514.764-2.213,1.159-5.1,3.072-6.134,3.637-1.961,4.372-7.366,9.595-7.431,1.768-.022.637-1.9.222-2.98a3.064,3.064,0,0,1,1.419-1.245c3.764-.194,3.764-.194,4.134-6.92.008-.554-.92.23-.413.006.1-.046.137.059.178.3.138.817-.032,1.646.076,2.454.374,2.794-.281,4.617-3.638,4.142-.565-.081-1,.408-1.473.688-1.471.205-2.4-.2-2.352-1.911.051-1.9-.015-3.8.022-5.155-.43,2.087.46,4.818-.384,7.429-1.425-2.11-2.446-9.847-1.521-11.658.244-.476.643-1.258,1.157-.892C2366.868,355.9,2365.323,350.443,2367.145,350.012Z" transform="translate(-12.785 -13.799)" fill="#f1f3f2"/>
    <path id="Path_216" data-name="Path 216" d="M2586.537,380.863c1.626,3.932.213,8.218,1.472,12.251.51,1.631-1.365,2.225-2.736,2.419-2.165.307-4.319.551-6.206,1.782a1.661,1.661,0,0,1-1.637.822c-1.424.216-2.025-.827-2.391-1.827-1.6-4.368-2.265-8.768.057-13.136,2.079-1.563,4.607-1.965,7.013-2.69C2583.6,380.363,2585.176,379.414,2586.537,380.863Z" transform="translate(-50.379 -18.908)" fill="#fefefe"/>
    <path id="Path_217" data-name="Path 217" d="M2388.393,387.06c.031-6.023-1.612-11.747-3.132-17.494l3.139-.989c2.436,7.064,4.034,14.264,3.471,21.808C2388.2,391.9,2388.736,389.022,2388.393,387.06Z" transform="translate(-18.368 -16.954)" fill="#1fd8a1"/>
    <path id="Path_218" data-name="Path 218" d="M2671.863,429.141c-2.35.417-.938,1.716-.622,2.727.568,1.816-.56,3.191-1.9,2.385-4.163-2.507-8.908-.989-13.145-2.46,1.983-1.109.286-3.964,2.388-5.028,4.486-.534,9.01-2.332,13.381.449A1.377,1.377,0,0,1,2671.863,429.141Z" transform="translate(-64.422 -26.664)" fill="#f1f3f2"/>
    <path id="Path_219" data-name="Path 219" d="M2574.5,383.753c-1.34,5.154-1.665,10.193,1.682,14.815-3.514,2.056-6.725.481-9.959-.829v-5.017c1.662.428-.281,3.782,2.794,2.877,2.171-.639,2.119-2.058,2.2-3.787.144-2.994-.732-6.091.78-8.965C2573.152,382.26,2573.9,382.795,2574.5,383.753Z" transform="translate(-49.127 -19.338)" fill="#d7dde2"/>
    <path id="Path_220" data-name="Path 220" d="M2394.441,400.727c1.033,1.492,2.148,3.044.834,4.851-1.207,1.658-2.787.774-4.255.318a1.89,1.89,0,0,0-.7-.125c-5.215.48-5.47.185-4.185-4.878l.826-.285c1.63.777,3.3-1.082,4.922.066A2.177,2.177,0,0,0,2394.441,400.727Z" transform="translate(-18.407 -22.345)" fill="#87e5c9"/>
    <path id="Path_221" data-name="Path 221" d="M2656.591,427.041a4.18,4.18,0,0,0,.305,1.19c.545.894,1.99,1.614,1.328,2.742-.637,1.082-2.066.007-3.109.326a7.479,7.479,0,0,1-5.169-6.791q-.35-.578.293-.787l0,.047.885-.974c1.721.294,3.595-.3,5.168.888A3.829,3.829,0,0,1,2656.591,427.041Z" transform="translate(-63.338 -26.17)" fill="#2a4860"/>
    <path id="Path_222" data-name="Path 222" d="M2306.338,417.649c-4.636-.04-5.057-.772-3.271-5.672,1.03.29,2.118.946,3.076.794,2.037-.324,3.366-.025,3.4,2.308C2309.575,417.243,2308.269,417.867,2306.338,417.649Z" transform="translate(-4.23 -24.332)" fill="#f7b4b7"/>
    <path id="Path_223" data-name="Path 223" d="M2675.07,429.14q.135-.8.272-1.6a1.888,1.888,0,0,1,.841-.629c1.38-.144,2.391-1.579,3.941-1.141.855,1.039,1.531,2.264,3.026,2.581,1.262.267,2.558.525,3.372,1.93C2682.628,430.314,2678.7,431.443,2675.07,429.14Z" transform="translate(-67.63 -26.663)" fill="#525d66"/>
    <path id="Path_224" data-name="Path 224" d="M2680.975,421.692c1.719-1.7,1.1-4.11,1.875-6.1l3.243,6.9c-1.327,2.151-3.312.123-4.876.768A1.107,1.107,0,0,1,2680.975,421.692Z" transform="translate(-68.596 -24.946)" fill="#fefefe"/>
    <path id="Path_225" data-name="Path 225" d="M2680.022,422.866l.242,1.569a5.174,5.174,0,0,0-.125.8c-1.552.1-1.969,3.238-4.182,1.556a3.185,3.185,0,0,1-.231-3.957.923.923,0,0,1,1.26-.152Z" transform="translate(-67.644 -26.12)" fill="#ca9b7d"/>
    <path id="Path_226" data-name="Path 226" d="M2614,424.822c-.025.924-.59,1.3-1.329,1.061-1.116-.364-2.654-.52-2.783-1.959a1.777,1.777,0,0,1,1.93-1.721C2613.344,422.3,2613.474,423.8,2614,424.822Z" transform="translate(-56.55 -26.069)" fill="#f1f3f2"/>
    <path id="Path_227" data-name="Path 227" d="M2611.64,413.526a35.062,35.062,0,0,1-12.46-1.671A33.866,33.866,0,0,1,2611.64,413.526Z" transform="translate(-54.73 -24.309)" fill="#f1f3f2"/>
    <path id="Path_228" data-name="Path 228" d="M2392.188,400.493c-2.082.144-3.657,1-4,3.27-1.841-.987.322-2.473-.922-3.335C2388.907,400.324,2390.584,397.713,2392.188,400.493Z" transform="translate(-18.708 -22.163)" fill="#f1f3f2"/>
    <path id="Path_229" data-name="Path 229" d="M2365.272,366.953V358.5c2.448,2.325-2.039,6.984,3.272,7.769l-.032-.04-.808.932Z" transform="translate(-14.971 -15.242)" fill="#bcc4cb"/>
    <path id="Path_230" data-name="Path 230" d="M2648.885,423.911q-.147.393-.293.787c-1.884.933-3.662,2.493-6.74.642Z" transform="translate(-61.983 -26.36)" fill="#fefefe"/>
    <path id="Path_231" data-name="Path 231" d="M2565.159,407.637c-3.326-.037-6.687.34-9.924-.805A18.414,18.414,0,0,1,2565.159,407.637Z" transform="translate(-47.26 -23.402)" fill="#f1f3f2"/>
    <path id="Path_232" data-name="Path 232" d="M2548.93,409.884c1.941,1.778,4.558-.059,7.026,1.443-3.24.188-6.051.769-8.764-.628A1.679,1.679,0,0,1,2548.93,409.884Z" transform="translate(-45.893 -23.975)" fill="#f1f3f2"/>
    <path id="Path_233" data-name="Path 233" d="M2646.959,373.6c.206.018.412.029.618.031,1.893,1.917,1.526,4.692,2.63,6.913-.056,1.68.51,3.451-.733,4.956-1.44.843-2.97.518-4.445.236a60.84,60.84,0,0,0-23.862.5,51.368,51.368,0,0,1-19.758.313,6.51,6.51,0,0,1-3.417-1.333c-2.914-11.109.247-14.147,11.752-12.363,12.05,1.868,24.219,2.517,36.388.745Q2646.55,372.991,2646.959,373.6Z" transform="translate(-54.355 -17.599)" fill="#fefefe"/>
    <path id="Path_234" data-name="Path 234" d="M2491.557,381.759l-.385-.095-.386.085a6.712,6.712,0,0,1-7.48-.026c-5.232-.428-4.408-4.182-3.919-7.483.938-6.321,2.109-12.609,3.184-18.91,1.117-2.051,3.215-2.888,5.036-4.073a3.776,3.776,0,0,1,3.865,1.414c5.769-.311,5.789-.315,7.017,6.269,1.075,5.777,2.311,11.531,2.32,17.458,0,1.579.058,3.052-1.736,3.737C2496.843,381.952,2494.5,383.259,2491.557,381.759Z" transform="translate(-34.306 -13.997)" fill="#63f"/>
    <path id="Path_235" data-name="Path 235" d="M2598.2,387.472c11.533,2.175,22.829-.481,34.207-1.625,5.773-.58,11.439.576,17.092,1.6,2.17,3.627-.036,6-2.384,8.339-13.872-.346-27.805-.061-41.5-2.659C2602.627,392.562,2597.74,393.126,2598.2,387.472Z" transform="translate(-54.558 -19.864)" fill="#e4e4e4"/>
    <path id="Path_236" data-name="Path 236" d="M2494.124,387.689l7.516-1.623c.45,8.3-2.19,16.4-1.634,24.709-1.171,2.382-1.46,2.444-4.021.865C2495.622,403.636,2495.253,395.633,2494.124,387.689Z" transform="translate(-36.873 -19.927)" fill="#eec6b6"/>
    <path id="Path_237" data-name="Path 237" d="M2483.132,387.916a22.28,22.28,0,0,1,7.481.026c-1.61,5.448-4.8,10.184-6.945,15.4-1,2.419-2.3,4.719-2.2,7.449-2.273,1.008-3.921,1.073-3.351-2.216C2479.2,401.543,2481.3,394.762,2483.132,387.916Z" transform="translate(-34.131 -20.189)" fill="#efc8b7"/>
    <path id="Path_238" data-name="Path 238" d="M2487.42,349.753a9.934,9.934,0,0,1-4.806,3.5c-3.823-2.659-3.845-6.3-2.635-10.25l4.756-.019c1.919.937,2.3-.893,3.122-1.8,1.243-1.386,2.5-2.579,4.569-2.146a2.8,2.8,0,0,1,.939.647l-.012-.008c2.415,1.77,2.169,3.927-.038,5.239C2491.049,346.255,2489.543,348.345,2487.42,349.753Z" transform="translate(-34.348 -11.917)" fill="#efc5b4"/>
    <path id="Path_239" data-name="Path 239" d="M2485.961,332.968q-.431-1.9-.86-3.8c1.54-1.737,4.881-2.594,2.409-6.155-.858-1.235.472-1.591,1.859-1.438,2.668.293,5.158-.275,6.893-2.622a13.155,13.155,0,0,1-1.291,6.927c-.793,1.792-1.194,3.588.067,5.359a1.524,1.524,0,0,1,.557,1.005,3.484,3.484,0,0,1-2.079,2.667C2491,334.276,2488.805,332.353,2485.961,332.968Z" transform="translate(-35.339 -8.519)" fill="#e6c2b4"/>
    <path id="Path_240" data-name="Path 240" d="M2424.332,354.136q.735-1.018,1.468-2.034.059,10.73.123,21.455c-1.156,1.444,1.112,3.85-1.381,4.919.744-7.166-.4-13.523-7.273-17.577-.73-.431-1.057-1.543-1.571-2.338a.879.879,0,0,1,.293-.729c3.617,1.077,5.5,4.251,7.836,6.2C2423.112,360.993,2422.608,357.533,2424.332,354.136Z" transform="translate(-23.541 -14.154)" fill="#51657c"/>
    <path id="Path_241" data-name="Path 241" d="M2489.089,349.618c1.21-2.385,2.072-4.787,5.339-5.581,2.232-.543,1.362-2.838.594-4.5,1.684.663,3.11-2.83,4.489-.686,1.273,1.981-.852,3.694-1.816,5.422-1.255,2.249-3.766,3.573-4.512,6.186Z" transform="translate(-36.017 -11.781)" fill="#fa656b"/>
    <path id="Path_242" data-name="Path 242" d="M2655.82,369.938q-.413,0-.826-.006c-4.673-3.692-6.111-8.646-5.86-14.393.093-2.106.561-3.732,2.532-4.691A33.908,33.908,0,0,0,2655.82,369.938Z" transform="translate(-63.217 -13.941)" fill="#f1f3f2"/>
    <path id="Path_243" data-name="Path 243" d="M2656.332,394.938c1.806-2.491,3.033-5.147,2.384-8.339q.071-2.463.142-4.926c.39-.581.723-1.275,1.634-.831a30.489,30.489,0,0,1-2.881,15.593,38.423,38.423,0,0,0-4,15.894c-.662.131-.994-.225-1.18-.8C2652.22,405.646,2655.008,400.464,2656.332,394.938Z" transform="translate(-63.779 -19.015)" fill="#224972"/>
    <path id="Path_244" data-name="Path 244" d="M2575.222,382.782a3.487,3.487,0,0,1-2.5-.906c-.284-1.187-1.884-.3-2.232-1.431,3.412-1.863,7.228-2.435,10.914-3.41,1.029-.272,2.03-.325,1.427,1.294a3.134,3.134,0,0,1-.885,2.588Z" transform="translate(-49.853 -18.367)" fill="#496df8"/>
    <path id="Path_245" data-name="Path 245" d="M2450.072,373.157c7.872-1.469,15.726-2.353,23.472.363C2465.774,371.587,2457.912,372.754,2450.072,373.157Z" transform="translate(-29.384 -17.496)" fill="#bec7cd"/>
    <path id="Path_246" data-name="Path 246" d="M2477.857,412.864c-.075,2.541,2.1,1.684,3.352,2.217l2.238,4.154c-3.393.823-4.758-1.633-6.385-3.44C2475.953,414.563,2476.6,413.575,2477.857,412.864Z" transform="translate(-33.876 -24.482)" fill="#5675f7"/>
    <path id="Path_247" data-name="Path 247" d="M2496.361,416.7a3.032,3.032,0,0,0,4.021-.865l5.353,2.922c-3.116.843-5.523.369-7.9.322C2496.282,419.049,2496.286,417.85,2496.361,416.7Z" transform="translate(-37.249 -24.987)" fill="#5875f5"/>
    <path id="Path_248" data-name="Path 248" d="M2513.768,348.083c-1.651.778-3.443-.286-4.428,1.389a1.889,1.889,0,0,1-3.062.678c-.692-.457-1.035-1.041-.475-1.633.958-1.012,1.944-2.841,3.581-1.594C2510.759,347.972,2512.351,347.073,2513.768,348.083Z" transform="translate(-38.81 -13.202)" fill="#e7cabf"/>
    <path id="Path_249" data-name="Path 249" d="M2652.254,417.846l1.182.8,2.845,1.763c.632.921.681,1.762-.337,2.456-1.483-.475-3.4,1.241-4.551-.909A9.011,9.011,0,0,0,2652.254,417.846Z" transform="translate(-63.606 -25.329)" fill="#c59f87"/>
    <path id="Path_250" data-name="Path 250" d="M2469.666,355.237c-5.508.687-11.094-.072-16.593,1.1C2458.486,354,2464.1,355.1,2469.666,355.237Z" transform="translate(-29.894 -14.623)" fill="#bcc4cb"/>
    <path id="Path_251" data-name="Path 251" d="M2508.148,362.295c5.325-1.137,10.475,1.17,15.77.642C2518.577,364.37,2513.41,362.409,2508.148,362.295Z" transform="translate(-39.257 -15.832)" fill="#bbc4cb"/>
    <path id="Path_252" data-name="Path 252" d="M2382.218,342.662c.311-.257.618-.735.932-.74,4.2-.061,5.448-2.332,4.883-6.182a12.529,12.529,0,0,1,.2-3.937c1.613,9.6.975,10.7-6.042,10.809Z" transform="translate(-17.846 -10.704)" fill="#bcc4cb"/>
    <path id="Path_253" data-name="Path 253" d="M2426.335,382.87c1.512-1.344-.151-3.58,1.381-4.919v10.232C2425.672,385.955,2426.37,384.335,2426.335,382.87Z" transform="translate(-25.335 -18.548)" fill="#142e4d"/>
    <path id="Path_254" data-name="Path 254" d="M2460.264,321.407c3.347-2.217,7.03-1.426,10.667-1.247C2467.458,321.134,2463.766,320,2460.264,321.407Z" transform="translate(-31.117 -8.676)" fill="#bdc5cc"/>
    <path id="Path_255" data-name="Path 255" d="M2495.116,337.086l1.588-2.445c.928-1.072,1.854-2.156,3.337-.747A14.523,14.523,0,0,0,2496,338.7l-.864.032A1.1,1.1,0,0,1,2495.116,337.086Z" transform="translate(-36.979 -10.945)" fill="#6c6575"/>
    <path id="Path_256" data-name="Path 256" d="M2381.851,342.959c-1.378,1.26-1.588.168-1.614-.877-.061-2.435-.019-4.873-.019-8.245,1.708,3.518-.358,6.691,1.663,9.171Z" transform="translate(-17.509 -11.049)" fill="#bac2ca"/>
    <path id="Path_257" data-name="Path 257" d="M2584.289,381.212c0-.963-.162-1.983.886-2.588,1.1.6,3.16-.329,3.18,1.994Z" transform="translate(-52.197 -18.662)" fill="#4a6689"/>
    <path id="Path_258" data-name="Path 258" d="M2642.2,351.192l2.456-.079c-.445,1.187-.889,2.375-1.369,3.655C2641.552,353.826,2642.468,352.342,2642.2,351.192Z" transform="translate(-62.041 -13.986)" fill="#f1f3f2"/>
    <path id="Path_259" data-name="Path 259" d="M2500.437,333.314c-1.231-.285-2.267.3-3.337.746q-.014-.488-.026-.978c1.133-.736,1.222-1.848.652-3.268C2499.679,330.612,2500.495,331.66,2500.437,333.314Z" transform="translate(-37.374 -10.366)" fill="#e18488"/>
    <path id="Path_260" data-name="Path 260" d="M2719.745,368.2c-.484.929-.525,2.012-2.071,2.1-3.392.182-2.067-3.441-3.862-4.694-.565-.393,1.576-1.207,2.348-1.16C2718.338,364.572,2719.348,366.173,2719.745,368.2Z" transform="translate(-74.199 -16.251)" fill="#c8ced4"/>
    <path id="Path_261" data-name="Path 261" d="M2661.431,379.284l-1.634.83c-2.465-1.692-1.1-4.456-1.855-6.629.657-1.512,2.216-1.438,3.44-1.951C2662.744,374.108,2663.12,376.689,2661.431,379.284Z" transform="translate(-64.718 -17.457)" fill="#c89e84"/>
    <path id="Path_262" data-name="Path 262" d="M2663.026,365.766q-.771.819-1.539,1.642a17.672,17.672,0,0,1-1.655-7.935,8.679,8.679,0,0,0-.19-3.274c-1.176-2.976-2.913-5.923,1.8-7.272-1.946,3.491-.41,7.526-.6,11.506C2660.751,362.414,2660.854,364.585,2663.026,365.766Z" transform="translate(-64.785 -13.614)" fill="#8b9aab"/>
    <path id="Path_263" data-name="Path 263" d="M2674.4,342.552c5.448-2.132,4.156-6.282,3.9-10.481C2681.786,338.6,2680.423,342.579,2674.4,342.552Z" transform="translate(-67.516 -10.749)" fill="#a1aeb9"/>
    <path id="Path_264" data-name="Path 264" d="M2656.876,418.074q.168-1.228.337-2.456c4.623-7.014,7.274-14.973,10.791-22.516.516-1.108.886-2.284,1.323-3.429,2.691,2.076,2.288,5.017,2.164,7.858-.291,6.659-.941,13.338,1.251,19.84q.053,1.919.108,3.837a1.082,1.082,0,0,1-.6.213c-4.818-1.384-9.64.127-14.46-.01C2656.693,420.517,2657.27,419.162,2656.876,418.074Z" transform="translate(-64.537 -20.54)" fill="#f2f3f3"/>
    <path id="Path_265" data-name="Path 265" d="M2675.292,415.153c-2.261-1.776-1.991-4.463-2.122-6.812a111.27,111.27,0,0,1,.116-12.388,23.133,23.133,0,0,0-1.409-8.5q1.042-5.31,2.085-10.617a.4.4,0,0,1,.686-.03c.56,10.047.412,20.1.105,30.149a15.046,15.046,0,0,0,1.675,7.922Z" transform="translate(-67.087 -18.323)" fill="#1c405e"/>
    <path id="Path_266" data-name="Path 266" d="M2675.076,375.453c-.229.012-.458.022-.687.03.364-2.4.438-4.888,2.249-6.84C2677.486,369.938,2677.486,369.938,2675.076,375.453Z" transform="translate(-67.514 -16.966)" fill="#194479"/>
    <path id="Path_267" data-name="Path 267" d="M2424.253,354.553v10.994a36.709,36.709,0,0,1-8.339-7.292c.056-.721-1.9-2.252.558-1.975C2419.341,356.606,2421.755,355.544,2424.253,354.553Z" transform="translate(-23.462 -14.571)" fill="#fbfcfc"/>
    <path id="Path_268" data-name="Path 268" d="M2316.521,363.757c-.87,1.765-1.74,3.528-2.973,6.028C2313.292,366.7,2314.89,365.225,2316.521,363.757Z" transform="translate(-6.174 -16.135)" fill="#feb5b7"/>
    <path id="Path_269" data-name="Path 269" d="M2306.927,395.961v6.424l-.417,0v-6.434Z" transform="translate(-4.983 -21.608)" fill="#fdbfc1"/>
    <path id="Path_270" data-name="Path 270" d="M2493.57,337.308q.008.825.016,1.65c-3.34-.322-3.928,2.949-5.852,4.475-.58.46-1.082,1.557-1.949.718-.314-.3.006-1.262.036-1.921q.116-3.307.233-6.614C2489.278,332.993,2491.289,335.751,2493.57,337.308Z" transform="translate(-35.433 -11.167)" fill="#fa656a"/>
    <path id="Path_271" data-name="Path 271" d="M2542.8,414.853c3.268-3.024,6.482-1.873,9.429-1.88a26.136,26.136,0,0,1,4.017.655c1.128.178,2.979-.335,2.861,1.354-.1,1.43-1.993,2.046-3.263,1.9C2551.73,416.419,2547.655,415.638,2542.8,414.853Z" transform="translate(-45.146 -24.465)" fill="#f1f3f2"/>
    <path id="Path_272" data-name="Path 272" d="M2581.966,421.845c2.081.281,4.271.526,6.44.895.917.155,2.13.4,2.016,1.629-.112,1.2-1.479,1.339-2.281,1.3a70.686,70.686,0,0,1-8.181-.9c-.946-.159-2.621-.123-2.461-1.613.14-1.308,1.625-1.217,2.708-1.3C2580.757,421.81,2581.312,421.845,2581.966,421.845Z" transform="translate(-51.043 -26.007)" fill="#fe9c6e"/>
    <path id="Path_273" data-name="Path 273" d="M2591.1,416.306c3.961-1.21,7.694.964,11.593.675C2598.727,418.3,2594.974,416.4,2591.1,416.306Z" transform="translate(-53.357 -25.005)" fill="#c8d0d7"/>
    <path id="Path_274" data-name="Path 274" d="M2369.208,365.779c5.919-.86,3.6-5.847,4.45-10.183,1.4,9.752,1.2,10.153-4.483,10.143Z" transform="translate(-15.634 -14.748)" fill="#bac3c9"/>
  </g>
</svg>
